<svg width="60" height="60" viewBox="0 0 60 60" fill="none" xmlns="http://www.w3.org/2000/svg">
<mask id="mask0_33_28" style="mask-type:alpha" maskUnits="userSpaceOnUse" x="0" y="0" width="60" height="60">
<circle cx="30" cy="30" r="30" fill="#D9D9D9"/>
</mask>
<g mask="url(#mask0_33_28)">
<circle cx="30" cy="30" r="30" fill="url(#paint0_linear_33_28)"/>
<path d="M28.8384 62V70H31.1616V63L43.0101 60.0613C43.0488 60.408 47.6566 62.1434 46.7273 59C45.798 55.8566 56.4343 53.0039 60.5 50.5C60.2677 50.3844 52.001 45.2226 50.7929 44.5755C49.5848 43.9283 51.2963 38.7586 52.303 36.2547C51.2189 36.6785 48.5859 37.5722 46.7273 37.7571C44.8687 37.942 43.8619 35.3687 43.5909 34.059C42.1582 36.5244 38.9212 41.2703 37.4343 40.5307C35.9475 39.791 38.0539 30.9772 39.2929 26.6627C38.4024 27.4717 36.3424 29.0896 35.2273 29.0896C34.1121 29.0896 31.4327 23.6965 30.2323 21H29.6515C28.7222 23.8121 26.5152 29.367 25.1212 29.0896C23.7273 28.8123 21.5976 27.3561 20.7071 26.6627C22.1397 31.4009 24.5869 40.808 22.9141 40.5307C21.2414 40.2533 17.7256 36.1006 16.1768 34.059C16.138 34.5212 15.8283 35.7693 14.899 37.0637C13.9697 38.358 9.78788 37.0637 7.81313 36.2547C9.43939 41.9175 9.67172 43.9976 9.43939 44.5755C9.25354 45.0377 2.73569 46.8074 2 47C7.11111 51.0679 16.0202 57.3349 13 64.5L28.8384 62Z" fill="white"/>
</g>
<defs>
<linearGradient id="paint0_linear_33_28" x1="60" y1="30" x2="0" y2="30" gradientUnits="userSpaceOnUse">
<stop stop-color="#FF3E00"/>
<stop offset="0.686666" stop-color="#FF6736"/>
</linearGradient>
</defs>
</svg>
