<svg width="50" height="50" viewBox="0 0 50 50" fill="none" xmlns="http://www.w3.org/2000/svg">
<rect width="50" height="50" rx="13" fill="#EE4F1C"/>
<path d="M24.9045 33.8684H24.6667L18.8889 34.9297C20.3333 31.274 16.4444 29.6937 14 27.6182C14.3519 27.5199 15.0778 27.2644 15.1667 27.0286C15.2778 26.7338 15.1667 25.6724 14.3889 22.7832C15.3333 23.1959 17.3333 23.8563 17.7778 23.1959C18.2222 22.5356 18.3704 21.8987 18.3889 21.6629C19.1296 22.7046 20.8111 24.8233 21.6111 24.9649C22.4111 25.1064 21.2407 20.3067 20.5556 17.8892C20.9815 18.243 22 18.9859 22.6667 19.1275C23.3333 19.269 24.3889 16.4348 24.8333 15H25.1111C25.6852 16.3758 26.9667 19.1275 27.5 19.1275C28.0333 19.1275 29.0185 18.302 29.4444 17.8892C28.8519 20.0905 27.8444 24.5875 28.5556 24.9649C29.2667 25.3422 30.8148 22.9208 31.5 21.6629C31.6296 22.3311 32.1111 23.6441 33 23.5497C33.8889 23.4554 35.1481 22.9994 35.6667 22.7832C35.1852 24.0607 34.3667 26.6984 34.9444 27.0286C35.5222 27.3588 35.8889 27.5592 36 27.6182C34.0556 28.8958 30.2778 31.8518 30.7222 33.4556C30.9714 34.3548 31.1042 34.7647 31.1695 34.9201L31.2222 34.9297C31.2304 35.0074 31.2206 35.0419 31.1695 34.9201L25.3889 33.8684H25.1417H24.9045Z" fill="white"/>
</svg>
