<svg width="21" height="20" viewBox="0 0 21 20" fill="none" xmlns="http://www.w3.org/2000/svg">
<path d="M8.8283 0C4.23857 0 0.5 3.73857 0.5 8.3283C0.5 12.918 4.23857 16.6566 8.8283 16.6566C10.8242 16.6566 12.6571 15.9478 14.0937 14.7713L19.0662 19.7439C19.2751 19.9615 19.5853 20.0491 19.8772 19.973C20.169 19.897 20.397 19.669 20.473 19.3772C20.5491 19.0853 20.4615 18.7751 20.2439 18.5662L15.2713 13.5937C16.4478 12.1571 17.1566 10.3242 17.1566 8.3283C17.1566 3.73857 13.418 0 8.8283 0ZM8.8283 1.66566C12.5178 1.66566 15.4909 4.63876 15.4909 8.3283C15.4909 12.0178 12.5178 14.9909 8.8283 14.9909C5.13876 14.9909 2.16566 12.0178 2.16566 8.3283C2.16566 4.63876 5.13876 1.66566 8.8283 1.66566Z" fill="white"/>
</svg>
